<?xml version="1.0" standalone="no"?>
<!DOCTYPE svg PUBLIC "-//W3C//DTD SVG 20010904//EN"
 "http://www.w3.org/TR/2001/REC-SVG-20010904/DTD/svg10.dtd">
<svg version="1.0" xmlns="http://www.w3.org/2000/svg"
 width="1000.000000pt" height="1000.000000pt" viewBox="0 0 1000.000000 1000.000000"
 preserveAspectRatio="xMidYMid meet">
<metadata>
Created by potrace 1.16, written by Peter Selinger 2001-2019
</metadata>
<g transform="translate(0.000000,1000.000000) scale(0.100000,-0.100000)"
fill="#000000" stroke="none">
<path d="M0 5000 l0 -5000 5000 0 5000 0 0 5000 0 5000 -5000 0 -5000 0 0
-5000z m5264 3325 c214 -28 410 -88 611 -186 570 -277 975 -816 1090 -1449 23
-125 31 -439 16 -568 -55 -444 -239 -833 -546 -1151 -308 -319 -673 -512
-1125 -593 -49 -8 -158 -13 -310 -13 -245 0 -301 6 -481 51 -280 69 -558 208
-779 389 -95 78 -267 257 -337 352 -262 354 -393 750 -393 1193 0 323 62 593
200 876 105 213 231 385 411 559 322 310 707 490 1174 548 83 11 365 6 469 -8z
m2739 -4851 c219 -48 381 -193 453 -405 14 -40 27 -99 31 -131 l6 -59 -153 3
-153 3 -14 70 c-39 193 -154 285 -355 285 -167 0 -283 -71 -353 -213 -44 -93
-65 -198 -72 -372 -14 -345 48 -570 185 -670 126 -91 361 -87 487 9 41 32 93
131 109 209 l13 62 155 3 155 2 -8 -51 c-45 -285 -231 -481 -508 -535 -116
-23 -309 -15 -406 15 -244 78 -408 276 -472 571 -22 106 -26 497 -5 595 41
191 106 320 217 430 91 91 203 155 316 180 89 19 283 19 372 -1z m-5646 -27
c257 -68 384 -232 371 -482 -7 -136 -78 -251 -197 -318 l-53 -30 46 -17 c98
-38 170 -109 218 -215 27 -61 37 -220 18 -308 -37 -181 -180 -315 -390 -364
-65 -16 -127 -18 -470 -18 l-395 0 -3 888 -2 889 397 -5 c327 -3 409 -7 460
-20z m1035 -392 l3 -414 49 62 c28 34 182 221 344 415 l294 352 184 0 c101 0
184 -2 184 -4 0 -3 -146 -179 -325 -392 -179 -213 -325 -390 -325 -393 0 -3
156 -226 345 -494 190 -269 345 -491 345 -493 0 -2 -82 -4 -182 -4 l-183 1
-263 379 c-145 209 -267 380 -271 380 -5 0 -52 -47 -105 -104 l-96 -104 0
-276 0 -276 -155 0 -155 0 0 890 0 890 155 0 155 0 2 -415z m1593 -475 l0
-885 -152 -3 -153 -3 0 891 0 891 153 -3 152 -3 0 -885z m1085 259 l395 -631
3 631 2 631 150 0 150 0 0 -890 0 -890 -152 0 -153 0 -390 621 c-214 341 -393
623 -397 625 -5 3 -8 -276 -8 -620 l0 -626 -155 0 -155 0 0 890 0 890 158 0
157 -1 395 -630z"/>
<path d="M4828 8169 c-459 -44 -905 -273 -1203 -616 -585 -675 -604 -1657 -44
-2353 261 -324 643 -557 1051 -640 458 -93 934 -9 1327 235 359 222 627 557
765 955 274 786 -19 1657 -712 2120 -344 230 -774 338 -1184 299z m1266 -990
l26 -20 0 -809 0 -809 -26 -20 c-27 -21 -29 -21 -1094 -21 -1065 0 -1067 0
-1094 21 l-26 20 0 809 0 809 26 20 c27 21 29 21 1094 21 1065 0 1067 0 1094
-21z"/>
<path d="M3980 6260 l0 -650 1020 0 1020 0 0 650 0 650 -1020 0 -1020 0 0
-650z m1233 360 c7 -21 -19 -82 -158 -375 -92 -192 -174 -356 -183 -362 -22
-18 -39 -16 -62 7 -20 20 -20 20 -1 67 11 27 59 129 106 228 48 99 118 244
156 323 l68 143 33 -3 c24 -2 35 -9 41 -28z m-504 -144 c7 -8 11 -27 9 -43 -3
-30 -32 -48 -198 -122 l-75 -33 95 -44 c138 -63 162 -77 176 -99 17 -26 -2
-69 -33 -73 -29 -4 -322 134 -350 165 -27 28 -29 60 -7 92 19 27 307 169 345
170 15 1 32 -5 38 -13z m804 -53 c187 -87 197 -95 197 -142 0 -20 -6 -45 -12
-54 -15 -20 -321 -167 -347 -167 -29 0 -54 35 -47 65 5 21 24 34 94 66 48 21
109 49 136 62 l49 23 -132 59 c-126 56 -151 74 -151 109 0 21 28 46 51 46 11
0 84 -30 162 -67z"/>
<path d="M1812 2973 l3 -248 195 0 c217 1 256 8 322 58 68 52 83 87 83 192 0
98 -12 133 -62 179 -53 50 -100 59 -331 64 l-212 4 2 -249z"/>
<path d="M1810 2215 l0 -275 200 0 c109 0 222 5 250 11 75 16 139 64 172 128
24 46 28 65 28 140 0 103 -27 172 -83 216 -64 48 -110 55 -349 55 l-218 0 0
-275z"/>
</g>
</svg>
